<?xml version="1.0" encoding="UTF-8" standalone="no"?>
<svg width="498px" height="153px" viewBox="0 0 498 153" version="1.1" xmlns="http://www.w3.org/2000/svg" xmlns:xlink="http://www.w3.org/1999/xlink" xmlns:sketch="http://www.bohemiancoding.com/sketch/ns">
    <!-- Generator: Sketch 3.5.1 (25234) - http://www.bohemiancoding.com/sketch -->
    <title>Logo_Horizontal_Light@1x</title>
    <desc>Created with Sketch.</desc>
    <defs></defs>
    <g id="Look-and-Feel" stroke="none" stroke-width="1" fill="none" fill-rule="evenodd" sketch:type="MSPage">
        <g id="Intro" sketch:type="MSArtboardGroup" transform="translate(-151.000000, -191.000000)" fill="#FFFFFF">
            <g id="Logo_Horizontal_Light" sketch:type="MSLayerGroup" transform="translate(151.000000, 191.000000)">
                <g id="Symbol" sketch:type="MSShapeGroup">
                    <path d="M0,-2.71782596e-16 L75.8467018,37.9577528 L75.8467018,153 L0,115.042247 L0,-2.71782596e-16 Z" id="Left"></path>
                    <path d="M75.6456995,-2.71782596e-16 L151.49654,37.9577528 L151.49654,153 L75.6456995,115.042247 L75.6456995,-2.71782596e-16 Z" id="Right" opacity="0.5" transform="translate(113.571120, 76.500000) scale(-1, 1) translate(-113.571120, -76.500000) "></path>
                </g>
                <path d="M176.985294,115.517726 L183.57255,115.517726 L183.57255,38.009014 L176.985294,38.009014 L176.985294,115.517726 Z M263.486369,115.517726 L269.958059,115.517726 L269.958059,38.009014 L263.370803,38.009014 L263.370803,103.664819 L215.064258,38.009014 L208.361435,38.009014 L208.361435,115.517726 L214.948692,115.517726 L214.948692,48.9322807 L263.486369,115.517726 Z M307.637476,115.517726 L314.340298,115.517726 L314.340298,44.0516722 L339.533664,44.0516722 L339.533664,38.009014 L282.44411,38.009014 L282.44411,44.0516722 L307.637476,44.0516722 L307.637476,115.517726 Z M352.104587,85.0852731 C352.104587,103.86996 362.242654,115.782201 381.721411,115.782201 C401.314079,115.782201 411.338235,103.984501 411.338235,85.0852731 L411.338235,38.009014 L404.731405,38.009014 L404.731405,84.9707324 C404.731405,100.433737 396.757645,109.826081 381.721411,109.826081 C366.799088,109.826081 358.711417,100.433737 358.711417,84.9707324 L358.711417,38.009014 L352.104587,38.009014 L352.104587,85.0852731 Z M424.333886,76.7091152 C424.333886,98.613751 438.762546,115.463471 460.856432,115.463471 C482.837594,115.463471 497.378978,98.613751 497.378978,76.7091152 C497.378978,54.8044793 482.837594,37.9547594 460.856432,37.9547594 C438.762546,37.9547594 424.333886,54.8044793 424.333886,76.7091152 L424.333886,76.7091152 Z M490.615544,76.7091152 C490.615544,95.5808015 478.892257,109.622235 460.856432,109.622235 C442.595159,109.622235 431.09732,95.5808015 431.09732,76.7091152 C431.09732,57.6127659 442.595159,43.7959956 460.856432,43.7959956 C478.892257,43.7959956 490.615544,57.6127659 490.615544,76.7091152 L490.615544,76.7091152 Z" id="Text" sketch:type="MSShapeGroup"></path>
            </g>
        </g>
    </g>
</svg>